<?xml version="1.0" encoding="UTF-8" standalone="no"?>
<!-- Uploaded to: SVG Repo, www.svgrepo.com, Generator: SVG Repo Mixer Tools -->

<svg
   height="800"
   width="161.99814"
   version="1.1"
   id="Layer_1"
   viewBox="279 0 60.749302 503.607"
   xml:space="preserve"
   sodipodi:docname="bullet.svg"
   inkscape:version="1.4.2 (ebf0e940, 2025-05-08)"
   xmlns:inkscape="http://www.inkscape.org/namespaces/inkscape"
   xmlns:sodipodi="http://sodipodi.sourceforge.net/DTD/sodipodi-0.dtd"
   xmlns="http://www.w3.org/2000/svg"
   xmlns:svg="http://www.w3.org/2000/svg"><defs
   id="defs13" /><sodipodi:namedview
   id="namedview13"
   pagecolor="#ffffff"
   bordercolor="#000000"
   borderopacity="0.25"
   inkscape:showpageshadow="2"
   inkscape:pageopacity="0.0"
   inkscape:pagecheckerboard="0"
   inkscape:deskcolor="#d1d1d1"
   inkscape:zoom="0.17525671"
   inkscape:cx="1064.1533"
   inkscape:cy="813.093"
   inkscape:window-width="1296"
   inkscape:window-height="708"
   inkscape:window-x="0"
   inkscape:window-y="25"
   inkscape:window-maximized="0"
   inkscape:current-layer="Layer_1" />
<g
   transform="translate(58.571278,1)"
   id="g13">
	<g
   id="g2">
		<path
   style="fill:#fcc309"
   d="m 279.97,494.213 h -58.754 c -6.715,0 -12.59,-5.036 -12.59,-11.751 v -9.233 c 0,-6.715 5.875,-12.59 12.59,-12.59 h 59.593 c 6.715,0 12.59,5.875 12.59,12.59 v 9.233 c -0.838,6.715 -6.714,11.751 -13.429,11.751"
   id="path1" />
		<path
   style="fill:#fcc309"
   d="m 253.951,43.485 -3.357,-36.092 -3.357,36.092 c -3.357,31.895 -5.036,65.469 -5.036,98.203 v 50.361 h 16.787 v -50.361 c -10e-4,-32.734 -1.68,-66.308 -5.037,-98.203"
   id="path2" />
	</g>
	<path
   style="fill:#ffffff"
   d="M 225.413,141.689 V 192.05 H 242.2 v -50.361 c 0,-33.574 1.679,-66.308 5.036,-98.203 l 3.357,-36.092 -10.911,36.092 c -9.233,31.894 -14.269,65.468 -14.269,98.203"
   id="path3" />
	<path
   style="fill:#fd9808"
   d="M 261.505,43.485 250.593,7.393 253.95,43.485 c 3.357,31.895 5.036,65.469 5.036,98.203 v 50.361 h 16.787 v -50.361 c 10e-4,-32.734 -5.035,-66.308 -14.268,-98.203"
   id="path4" />
	<path
   style="fill:#ffdd09"
   d="m 265.702,192.049 h -30.216 l -10.072,33.574 v 201.443 l 4.197,26.02 c 0,5.036 2.518,7.554 5.875,7.554 h 31.056 c 2.518,0 5.036,-3.357 5.875,-7.554 l 3.357,-26.02 V 225.623 Z"
   id="path5" />
	<path
   style="fill:#ffffff"
   d="m 229.61,453.085 -4.197,-26.02 V 225.623 l 10.072,-33.574 h -10.072 l -16.787,33.574 v 201.443 l 6.715,26.02 c 0.839,5.036 5.036,7.554 9.233,7.554 h 10.072 c -2.518,-10e-4 -5.036,-2.519 -5.036,-7.555"
   id="path6" />
	<path
   style="fill:#fd9808"
   d="m 275.774,192.049 h -10.072 l 10.072,33.574 v 201.443 l -4.197,26.02 c 0,5.036 -2.518,7.554 -5.875,7.554 h 10.072 c 4.197,0 8.393,-3.357 10.072,-7.554 l 6.715,-26.02 V 225.623 Z"
   id="path7" />
	<path
   d="m 292.561,435.459 h -83.934 c -5.036,0 -8.393,-3.357 -8.393,-8.393 V 225.623 c 0,-5.036 3.357,-8.393 8.393,-8.393 h 83.934 c 5.036,0 8.393,3.357 8.393,8.393 v 201.443 c 0,5.036 -3.357,8.393 -8.393,8.393 z M 217.02,418.672 h 67.148 V 234.016 H 217.02 Z"
   id="path8" />
	<path
   d="m 276.613,469.033 h -52.039 c -8.393,0 -15.948,-5.875 -17.626,-14.269 l -6.715,-25.18 c 0,-2.518 0,-5.036 1.679,-7.554 1.679,-1.679 4.197,-3.357 6.715,-3.357 h 83.934 c 2.518,0 5.036,0.839 6.715,3.357 1.679,2.518 1.679,5.036 1.679,7.554 l -6.715,26.02 c -1.679,8.393 -9.233,13.429 -17.627,13.429 z m -57.075,-33.574 4.197,15.948 c 0,0.839 0,0.839 0.839,0.839 h 51.2 c 0.839,0 1.679,-0.839 1.679,-0.839 l 4.197,-15.948 z"
   id="path9" />
	<path
   d="m 279.97,502.607 h -58.754 c -11.751,0 -20.984,-9.233 -20.984,-20.144 v -9.233 c 0,-11.751 9.233,-20.984 20.984,-20.984 h 59.593 c 11.751,0 20.984,9.233 20.984,20.984 v 9.233 c -0.839,10.911 -10.072,20.144 -21.823,20.144 z m -58.754,-33.574 c -2.518,0 -4.197,1.679 -4.197,4.197 v 9.233 c 0,1.679 1.679,3.357 4.197,3.357 h 59.593 c 1.679,0 3.357,-1.679 3.357,-3.357 v -9.233 c 0,-2.518 -1.679,-4.197 -4.197,-4.197 z"
   id="path10" />
	<path
   d="m 292.561,234.016 h -83.934 c -2.518,0 -5.875,-1.679 -7.554,-4.197 -1.679,-2.518 -1.679,-5.875 0,-8.393 l 16.787,-33.574 c 1.679,-2.518 4.197,-4.197 7.554,-4.197 h 50.361 c 3.357,0 5.875,1.679 7.554,5.036 l 16.787,33.574 c 1.679,2.518 0.839,5.875 0,8.393 -1.68,2.519 -5.037,3.358 -7.555,3.358 z m -70.505,-16.787 h 57.075 l -8.393,-16.787 h -40.289 z"
   id="path11" />
	<path
   d="m 275.774,200.443 h -50.361 c -5.036,0 -8.393,-3.357 -8.393,-8.393 v -50.361 c 0,-5.036 3.357,-8.393 8.393,-8.393 h 50.361 c 5.036,0 8.393,3.357 8.393,8.393 v 50.361 c 0,5.035 -3.357,8.393 -8.393,8.393 z m -41.967,-16.787 h 33.574 v -33.574 h -33.574 z"
   id="path12" />
	<path
   d="m 275.774,150.082 h -50.361 c -5.036,0 -8.393,-3.357 -8.393,-8.393 0,-33.574 5.036,-67.987 15.108,-100.721 L 242.2,4.875 C 243.879,1.518 247.236,-1 250.593,-1 c 3.357,0 6.715,2.518 8.393,5.875 l 10.072,36.092 c 10.072,32.734 15.108,67.148 15.108,100.721 10e-4,5.037 -3.356,8.394 -8.392,8.394 z m -41.967,-16.787 h 33.574 c -0.839,-29.377 -5.875,-58.754 -14.269,-87.292 l -2.518,-9.233 -2.518,9.233 c -8.394,28.538 -13.43,57.915 -14.269,87.292 z"
   id="path13" />
</g>
</svg>
